<svg xmlns="http://www.w3.org/2000/svg" width="512" height="512" viewBox="0 0 512 512">
  <defs>
    <linearGradient id="g" x1="0" y1="0" x2="1" y2="1">
      <stop offset="0%" stop-color="#0ea5a4"/>
      <stop offset="100%" stop-color="#1f5fbf"/>
    </linearGradient>
  </defs>
  <rect width="512" height="512" rx="64" fill="#eaf6f6"/>
  <g transform="translate(64,64)">
    <circle cx="192" cy="192" r="180" fill="url(#g)" opacity="0.15"/>
    <path d="M192 40c-88 0-160 72-160 160s72 160 160 160 160-72 160-160S280 40 192 40zm0 16c79.5 0 144 64.5 144 144s-64.5 144-144 144S48 279.5 48 200 112.5 56 192 56z" fill="url(#g)" opacity="0.3"/>
    <!-- Simple caduceus style -->
    <g transform="translate(172,100)" fill="none" stroke="#0f5dbb" stroke-width="6" stroke-linecap="round">
      <circle cx="20" cy="12" r="10" fill="#0ea5a4"/>
      <path d="M20 22v116"/>
      <path d="M20 64c-20 0-36-10-36-22 0-10 12-18 28-18"/>
      <path d="M20 64c20 0 36-10 36-22 0-10-12-18-28-18"/>
      <path d="M8 96h24"/>
      <path d="M8 120h24"/>
    </g>
    <!-- DOC-AI text -->
    <text x="192" y="360" text-anchor="middle" font-family="Inter, Arial, sans-serif" font-size="64" font-weight="700" fill="#123c64">DOC-</text>
    <text x="340" y="360" text-anchor="middle" font-family="Inter, Arial, sans-serif" font-size="64" font-weight="700" fill="#0ea5a4">AI</text>
  </g>
</svg>
